<svg version="1.2" xmlns="http://www.w3.org/2000/svg" viewBox="0 0 800 800" width="800" height="800">
	<style>
		.s0 { fill: none;stroke: #000000;stroke-linecap: round;stroke-linejoin: round;stroke-width: 66.7 } 
	</style>
	<path class="s0" d="m192.3 745.67h414.9c48.4 0 72.61 0 91.1-9.43 16.26-8.28 29.49-21.51 37.77-37.78 9.42-18.49 9.42-42.71 9.42-91.13v-415c0-48.42 0-72.63-9.42-91.12-8.28-16.27-21.51-29.5-37.77-37.79-18.49-9.42-42.7-9.42-91.1-9.42h-414.9c-48.41 0-72.61 0-91.1 9.42-16.27 8.29-29.49 21.52-37.78 37.79-9.42 18.49-9.42 42.7-9.42 91.12v415c0 48.42 0 72.64 9.42 91.13 8.29 16.27 21.51 29.5 37.78 37.78 18.49 9.43 42.69 9.43 91.1 9.43zm121.01-216.15c-40.27 0-60.41 0-76.3-6.58-21.18-8.77-38-25.61-46.78-46.79-6.57-15.89-6.57-36.03-6.57-76.32 0-40.28 0-60.42 6.57-76.31 8.78-21.19 25.6-38.02 46.78-46.79 15.89-6.58 36.03-6.58 76.3-6.58m129.66 0l86.43 259.37 86.44-259.37"/>
</svg>